<svg width="33" height="34" viewBox="0 0 33 34" fill="none" xmlns="http://www.w3.org/2000/svg">
<path d="M21.7453 5.08641C21.6749 4.81942 21.4013 4.66011 21.1343 4.73059C20.8673 4.80107 20.708 5.07465 20.7785 5.34164L21.7453 5.08641ZM22.6406 10.4371L22.7398 10.9272C22.8747 10.8999 22.9924 10.8181 23.0652 10.7012C23.1379 10.5843 23.1592 10.4426 23.1241 10.3095L22.6406 10.4371ZM17.5761 10.9514C17.3054 11.0061 17.1304 11.2699 17.1851 11.5406C17.2399 11.8113 17.5037 11.9863 17.7743 11.9315L17.5761 10.9514ZM26.291 17.4885C26.277 17.2127 26.0421 17.0004 25.7664 17.0144C25.4906 17.0284 25.2783 17.2632 25.2923 17.539L26.291 17.4885ZM21.2619 5.21403L20.7785 5.34164L22.1572 10.5647L22.6406 10.4371L23.1241 10.3095L21.7453 5.08641L21.2619 5.21403ZM22.6406 10.4371L22.5415 9.94702L17.5761 10.9514L17.6752 11.4415L17.7743 11.9315L22.7398 10.9272L22.6406 10.4371ZM22.7085 25.5534L22.355 25.1998C18.3977 29.1571 11.9465 29.1327 7.94579 25.132L7.59223 25.4855L7.23868 25.8391C11.6239 30.2243 18.7083 30.2607 23.0621 25.907L22.7085 25.5534ZM7.59223 25.4855L7.94579 25.132C3.94505 21.1312 3.92064 14.68 7.87789 10.7228L7.52434 10.3692L7.17079 10.0157C2.81704 14.3694 2.85342 21.4538 7.23868 25.8391L7.59223 25.4855ZM7.52434 10.3692L7.87789 10.7228C11.8351 6.76552 18.2864 6.78992 22.2871 10.7907L22.6406 10.4371L22.9942 10.0835C18.6089 5.69828 11.5245 5.66191 7.17079 10.0157L7.52434 10.3692ZM25.7916 17.5138L25.2923 17.539C25.4321 20.3034 24.4535 23.1013 22.355 25.1998L22.7085 25.5534L23.0621 25.907C25.37 23.599 26.4445 20.5218 26.291 17.4885L25.7916 17.5138Z" fill="#9C3541"/>
</svg>
